<svg xmlns="http://www.w3.org/2000/svg" viewBox="0 0 389.92 147.51"><defs><style>.cls-1{fill:#fff;}.cls-2{fill:#231f20;}.cls-3{fill:#ff7900;}</style></defs><g id="Layer_2" data-name="Layer 2"><g id="Android_Compatible_Icon_Set_B" data-name="Android Compatible Icon Set B"><circle class="cls-1" cx="73.75" cy="73.75" r="73.75"/><g id="Loading"><path class="cls-2" d="M33.89,98.82a9.14,9.14,0,0,1-6.35-2.07,6.93,6.93,0,0,1-2.29-5.4q0-1.17,1.44-9.81l3-16.11H25.88l.18-1.62h3.87a64.05,64.05,0,0,0,9.81-.54L41,63,34.79,97a6.43,6.43,0,0,0,4.5-2.52l1.35,1.08A8.43,8.43,0,0,1,33.89,98.82ZM32.72,54.36a6.25,6.25,0,0,1-1.89-4.59,6.41,6.41,0,0,1,1.89-4.64,6.17,6.17,0,0,1,4.59-1.93,6.61,6.61,0,0,1,6.57,6.57,6.18,6.18,0,0,1-1.94,4.59,6.39,6.39,0,0,1-4.63,1.89A6.25,6.25,0,0,1,32.72,54.36Z"/><path class="cls-2" d="M80.59,97q2.16,0,4.5-2.52l1.35,1.08a5.53,5.53,0,0,1-2.79,2.25,11.31,11.31,0,0,1-4.77,1q-8.19,0-8.19-7.38a68.4,68.4,0,0,1,1.62-11.25,70.58,70.58,0,0,0,1.62-10.62q0-3.87-3.69-3.87-3,0-5.71,3.87A33.26,33.26,0,0,0,60,80.19L56.92,97a6.47,6.47,0,0,0,4.59-2.52l1.35,1.08a8.43,8.43,0,0,1-6.75,3.24,9.12,9.12,0,0,1-6.34-2.07,6.93,6.93,0,0,1-2.3-5.4q0-1.26,1.44-9.9l3-16.65a6.41,6.41,0,0,0-4.5,2.52L46,66.24A8.49,8.49,0,0,1,52.83,63a9,9,0,0,1,6.34,2.07,7.55,7.55,0,0,1,2.25,5.85v.54Q65.11,63,72.94,63q5.31,0,8.28,3t3,8.33a63.64,63.64,0,0,1-1.71,10.75A80.11,80.11,0,0,0,80.59,97Z"/><path class="cls-2" d="M103.63,80.64,100.39,98H89.68L99.85,41.49A6.41,6.41,0,0,0,95.35,44L94,42.93a8.49,8.49,0,0,1,6.8-3.24,9,9,0,0,1,6.34,2.07,7.55,7.55,0,0,1,2.25,5.85q0,.72-.18,2.34-2.07,11.43-4.5,24.66a19.25,19.25,0,0,1,6.48-8.55,15.09,15.09,0,0,1,9-3.06q4.77,0,6.71,1.89a6.32,6.32,0,0,1,1.93,4.72,6.47,6.47,0,0,1-1.71,4.64,5.85,5.85,0,0,1-4.45,1.8,5.54,5.54,0,0,1-4.23-1.58A6.59,6.59,0,0,1,117,69.79a5.53,5.53,0,0,1,2.16-4.72q-8.64,1-13.77,12.78a15.62,15.62,0,0,1,2.16-.18A13.1,13.1,0,0,1,115,79.56a8.52,8.52,0,0,1,3.55,4.63,35.85,35.85,0,0,1,1.17,5.49,17.72,17.72,0,0,0,1.17,4.64,2.9,2.9,0,0,0,2.88,1.89A3.71,3.71,0,0,0,127,94.5l1.35,1.08a5.53,5.53,0,0,1-2.79,2.25,13.32,13.32,0,0,1-5.53,1,10.46,10.46,0,0,1-5.94-1.71,9,9,0,0,1-3.56-4.28,43.2,43.2,0,0,1-1.62-5.08Q107.23,81.27,103.63,80.64Z"/><circle class="cls-3" cx="37.32" cy="49.77" r="6.61"/></g><path class="cls-1" d="M179.32,62c9,0,15,4.68,17,12.74h-9.82a7.07,7.07,0,0,0-7.21-5c-5.07,0-8.45,3.83-8.45,10.85s3.38,10.79,8.45,10.79c3.77,0,6.11-1.69,7.21-4.94h9.82c-1.95,7.67-8,12.74-17,12.74-10.4,0-17.81-7.28-17.81-18.59S168.92,62,179.32,62Z"/><path class="cls-1" d="M203,50.54h9.1v48.1H203Z"/><path class="cls-1" d="M255.05,98.64h-9.17V94.09a13.28,13.28,0,0,1-10.72,5c-8.39,0-14.43-5.46-14.43-15.34V62.63h9.1V82.45c0,5.79,3.18,8.91,8,8.91s8.06-3.12,8.06-8.91V62.63h9.17Z"/><path class="cls-1" d="M277.8,99.22c-9,0-15.34-5.26-15.74-12h9.17c.33,2.73,2.86,4.81,6.5,4.81s5.53-1.62,5.53-3.7c0-6.44-20.35-2.34-20.35-15.54,0-6,5.33-10.79,14.24-10.79,8.71,0,14,4.75,14.49,11.9h-8.71c-.26-2.8-2.47-4.68-6-4.68-3.38,0-5.14,1.36-5.14,3.44,0,6.57,20,2.47,20.22,15.67C292,94.54,286.57,99.22,277.8,99.22Z"/><path class="cls-1" d="M298.46,53a5.6,5.6,0,1,1,5.59,5.33A5.34,5.34,0,0,1,298.46,53Zm1,9.62h9.1v36h-9.1Z"/><path class="cls-1" d="M323.42,62.63l9.11,27.62,9.1-27.62h9.68L338,98.64H326.94l-13.27-36Z"/><path class="cls-1" d="M372.18,99.22c-10.47,0-18.08-7.28-18.08-18.59S361.51,62,372.18,62c10.4,0,17.74,7.09,17.74,17.81a20.74,20.74,0,0,1-.26,3.51H363.33c.46,5.33,4.1,8.32,8.65,8.32a7.43,7.43,0,0,0,7.22-4.35H389C387.06,94,381.08,99.22,372.18,99.22Zm-8.78-22h17.1c-.13-4.74-3.9-7.73-8.58-7.73C367.56,69.52,364.11,72.31,363.4,77.25Z"/><circle class="cls-3" cx="303.93" cy="52.31" r="6.23"/></g></g></svg>